
                <svg
                width="1024" height="1024"
                xmlns="http://www.w3.org/2000/svg" xmlns:xlink="http://www.w3.org/1999/xlink">

                <defs>
                <style type="text/css">
	.okbtjewpqjmctdhxzkvtgpovt{fill:#3669b2;}

	.rnsmbpgnvgvjlwubtcjerdrdl{fill:#6f3aaf;}

	.sagamqsbxqayzuwkuosxcfhqo{fill:#6f3aaf;}

	.qmqgfaeoklfxxztcrkfjyzpwp{fill:#3785c8;}
	.efkkmrhugudjdigzlxsgttnfn{fill:#a394e0;}

	.rquoibexblmrnwsrxuhgcmfvw{fill:#ffffff;}
</style>
                </defs>
                <g id= "qbmyejwzavtsxjseqzucnrile" ><path class = "qmqgfaeoklfxxztcrkfjyzpwp" d="M 581.15,479.44 C 581.1452071771923,530.5519635770479 535.3543070256226,572.0611838152291 478.59,572.7 L 477.25,572.7 L 475.9,572.7 A 155.99159837748104,155.99159837748104 0.0 0,1 418.51,561.4 C 368.9328440447492,541.2894938029592 334.4384,496.5241457264525 334.44,444.52 C 334.4384,374.1193778072897 397.6483021465175,316.9756161847708 475.9,316.32 C 419.1336181190906,316.9653606640201 373.3427179675208,358.4745809022013 373.34,409.59 A 84.75162348321906,84.75162348321906 0.0 0,0 380.87,444.52 C 396.2535513244316,478.7308172241068 433.61441341898234,502.87231307109346 477.24,502.87 C 520.8683839653555,502.87231307109346 558.2241182995308,478.7308172241068 573.64,444.52 A 84.75162348321906,84.75162348321906 0.0 0,1 581.15,479.44"/>
<path class = "efkkmrhugudjdigzlxsgttnfn" d="M 689.66,444.52 C 689.664,469.5880204749187 681.6493105333815,492.9808633071093 667.79,512.72 C 642.73473704511,548.4375917661494 598.56420917214,572.271421990617 548.2,572.71 C 604.9687818809095,572.0714393359798 650.7596820324793,530.5622190977986 650.76,479.45 A 84.66957931721402,84.66957931721402 0.0 0,0 643.23,444.52 C 627.8488486755684,410.30598277589314 590.493114341393,386.1644869289065 546.86,386.16 C 503.22888827426925,386.16448692890646 465.88340946084446,410.30598277589314 450.49,444.52 A 84.66957931721402,84.66957931721402 0.0 0,1 442.96,409.6 C 442.95719282280766,358.48483642295196 488.7532207347528,316.9756161847708 545.51,316.33 L 546.86,316.33 L 548.2,316.33 C 626.4540978534825,316.9756161847708 689.664,374.1193778072897 689.66,444.52"/>
</g>
<g id= "rfgvjwmwzdjtiwxqpfavdntup" ><path class = "sagamqsbxqayzuwkuosxcfhqo" d="M 288.64,457.44 L 311.6,436.22 L 308.66,432.95 L 288.64,451.47 L 267.15,431.6 L 245.65,451.47 L 224.16,431.6 L 202.66,451.47 L 181.16,431.6 L 159.67,451.47 L 138.17,431.6 L 116.66,451.47 L 96.63,432.95 L 93.7,436.22 L 116.66,457.44 L 138.17,437.57 L 159.67,457.44 L 181.16,437.57 L 202.66,457.44 L 224.16,437.57 L 245.65,457.44 L 267.15,437.57 L 288.64,457.44 L 288.64,457.44"/>
</g>
<g id= "xmddhqmhzvfqdnimqrxunftbe" ><path class = "rnsmbpgnvgvjlwubtcjerdrdl" d="M 906.42,457.38 L 929.28,436.26 L 926.35,433.0 L 906.42,451.44 L 885.04,431.66 L 863.64,451.44 L 842.24,431.66 L 820.85,451.44 L 799.45,431.66 L 778.06,451.44 L 756.66,431.66 L 735.26,451.44 L 715.31,433.0 L 712.4,436.26 L 735.26,457.38 L 756.66,437.6 L 778.06,457.38 L 799.45,437.6 L 820.85,457.38 L 842.24,437.6 L 863.64,457.38 L 885.04,437.6 L 906.42,457.38 L 906.42,457.38"/>
</g>
<g id= "lsogjstziapzdsmhmyvjrscji" ><path class="okbtjewpqjmctdhxzkvtgpovt" d="M 247.85,662.1 Q 249.2515972105998,662.1915224546724 250.65,662.24 Q 252.04967364016744,662.2817829846583 253.95,662.28 Q 255.43444351464444,662.2817829846584 257.38,662.19 Q 259.3156463040447,662.1012619246862 262.16,661.83 L 262.16,663.77 Q 258.45817126917717,664.0869935843795 257.28,665.53 Q 256.1565277545328,666.9302002789401 256.16,672.39 L 256.16,676.72 L 256.16,719.06 Q 256.1565277545328,724.6066789400279 257.42,725.96 Q 258.6838225941423,727.2693645746165 263.02,727.45 L 263.02,729.3 Q 258.3227804741981,728.9391843793585 255.66,728.8 Q 253.042539470014,728.6684027894004 251.1,728.67 Q 248.71003403068346,728.6684027894004 246.09,728.85 Q 243.47492329149236,728.9843146443516 240.18,729.3 L 240.18,727.45 Q 244.46778912133897,727.2693645746165 245.73,725.87 Q 246.99508396094848,724.4712881450489 247.0,718.69 L 247.0,714.54 L 247.0,669.86 L 223.98,729.39 L 201.55,668.87 L 201.55,715.72 Q 201.54890711297082,723.8394644351465 203.04,725.6 Q 204.57263486750355,727.3596251046025 209.67,727.5 L 209.67,729.3 Q 207.2804507670852,729.1197054393306 204.98,729.03 Q 202.67716373779643,728.9391843793585 200.42,728.94 Q 198.57030962343106,728.9391843793585 196.22,729.03 Q 193.8767620641563,729.1197054393306 191.26,729.3 L 191.3,727.45 Q 196.31379637377972,727.4047553695956 197.85,725.64 Q 199.42778465829855,723.8394644351465 199.43,715.17 L 199.43,708.59 L 199.43,673.2 Q 199.42778465829855,667.1107213389122 198.25,665.62 Q 197.1261411436542,664.0869935843795 193.43,663.77 L 193.43,661.83 Q 197.03588061366816,662.1012619246862 198.98,662.19 Q 200.96221366806145,662.2817829846584 202.27,662.28 Q 203.62489930264996,662.2817829846584 207.1,662.19 Q 208.1830560669457,662.1463921896793 208.77,662.1 L 228.0,713.96 L 247.85,662.1"/>
<path class="okbtjewpqjmctdhxzkvtgpovt" d="M 282.6,719.42 L 282.6,721.81 Q 282.6028630404464,725.5995447698746 283.42,726.5 Q 284.2275525801953,727.4047553695956 287.3,727.63 L 287.3,729.3 Q 286.5291960948397,729.2550962343097 285.18,729.21 Q 280.7525221757323,728.9391843793585 279.17,728.94 Q 277.1872312412832,728.9391843793585 272.4,729.21 Q 271.50081785216184,729.3002264993027 271.05,729.3 L 271.05,727.68 Q 274.20863375174343,727.3144948396096 274.98,726.41 Q 275.74306276150634,725.5092842398885 275.74,721.36 L 275.74,719.42 L 275.74,697.26 Q 275.74306276150634,693.6473171548118 274.89,692.79 Q 274.0732429567644,691.8872368200838 271.32,691.89 L 271.32,690.22 Q 274.43428507670853,689.9917656903766 277.23,689.63 Q 280.07556820083687,689.2696814504882 282.6,688.73 L 282.6,719.42 M 278.81,670.63 Q 276.78105885634596,670.6308820083683 275.7,669.46 Q 274.6599364016737,668.2389779637379 274.66,665.89 Q 274.6599364016737,663.5454304044631 275.7,662.33 Q 276.78105885634596,661.1083960948397 278.81,661.11 Q 280.7976524407253,661.1083960948397 281.88,662.37 Q 282.9639051603906,663.5905606694562 282.96,665.89 Q 282.96390516039054,668.2389779637379 281.88,669.46 Q 280.8427827057183,670.6308820083683 278.81,670.63"/>
<path class="okbtjewpqjmctdhxzkvtgpovt" d="M 348.31,730.43 Q 346.68783933054397,731.64700027894 344.75,732.82 Q 342.8066365411437,733.9937740585775 339.74,735.57 Q 340.82090488145053,735.4379425383543 341.68,735.35 Q 342.5358549511855,735.3025517433753 343.26,735.3 Q 347.3647933054394,735.3025517433753 351.43,736.48 Q 355.53337126917717,737.6493255230126 359.41,739.95 Q 360.7233517433752,740.7181835425384 363.25,742.39 Q 371.6900061366806,747.9841562064157 377.33,747.98 Q 379.45241171548116,747.9841562064157 381.26,747.31 Q 383.10796317991634,746.6753785216179 384.73,745.28 L 385.86,745.86 Q 383.37874476987446,751.3237958158996 379.41,754.21 Q 375.4358181311018,757.1456000000001 370.43,757.15 Q 365.73281115760113,757.1456000000001 362.3,755.25 Q 358.9181411436541,753.3546577405858 354.13,747.22 Q 353.68303040446307,746.6753785216179 352.74,745.5 Q 345.92062482566246,736.7918504881451 339.47,736.79 Q 338.02282845188284,736.7918504881451 337.35,737.2 Q 336.6689205020921,737.6041952580196 336.31,738.64 Q 336.2176178521618,738.8678426778243 336.08,739.36 Q 335.3601428172943,741.8915704323571 333.74,741.89 Q 333.0133690376569,741.8915704323571 332.52,741.35 Q 332.06563347280337,740.8535743375174 332.07,740.04 Q 332.06563347280337,737.9201071129708 338.47,734.45 Q 342.9420273361228,732.0080423988843 345.83,730.25 Q 333.4195414225942,729.5258778242678 325.21,719.69 Q 316.9921249651325,709.8039520223152 316.99,695.59 Q 316.9921249651325,680.6949311018132 325.97,670.59 Q 334.99910069735006,660.4314421199443 347.95,660.43 Q 360.90387280334727,660.4314421199443 369.84,670.59 Q 378.82058800557877,680.6949311018132 378.82,695.59 Q 378.8205880055788,710.3906454672247 370.16,720.27 Q 361.49056624825664,730.1577015341702 348.31,730.43 M 347.95,728.67 Q 358.0155358437936,728.6684027894004 362.62,720.82 Q 367.26724016736404,712.9179403068341 367.27,695.59 Q 367.26724016736404,678.1676362622037 362.62,670.18 Q 357.9704055788006,662.1915224546724 347.95,662.19 Q 337.9325679218968,662.1915224546724 333.24,670.22 Q 328.5454728033473,678.2578967921897 328.55,695.59 Q 328.5454728033473,712.782549511855 333.19,720.73 Q 337.8874376569038,728.6684027894004 347.95,728.67"/>
<path class="okbtjewpqjmctdhxzkvtgpovt" d="M 403.69,693.15 Q 404.0935364016736,693.1508842398885 404.86,693.2 Q 405.67309567642957,693.2411447698746 406.08,693.24 Q 415.2858421199442,693.2411447698746 419.71,689.5 Q 424.13137405857736,685.7043905160391 424.13,677.81 Q 424.13137405857736,670.4954912133892 420.61,667.2 Q 417.1361829846583,663.8613422594143 409.51,663.86 Q 408.200390516039,663.8613422594143 406.71,664.0 Q 405.26692329149233,664.1321238493724 403.69,664.4 L 403.69,693.15 M 403.69,714.54 L 403.69,719.33 Q 403.68736401673635,724.6066789400279 404.86,725.87 Q 406.0792680613668,727.1339737796375 410.5,727.45 L 410.55,729.3 Q 405.7633562064156,728.9391843793585 403.24,728.8 Q 400.7087665271967,728.6684027894004 398.86,728.67 Q 397.1434755927476,728.6684027894004 394.66,728.8 Q 392.2242767085077,728.9391843793585 387.03,729.3 L 387.03,727.45 Q 391.36680167364017,727.2693645746165 392.63,725.87 Q 393.89409651324974,724.4261578800558 393.89,718.2 L 393.89,714.54 L 393.89,673.2 Q 393.8940965132496,667.1107213389122 392.72,665.62 Q 391.5924529986053,664.0869935843795 387.89,663.77 L 387.89,661.83 Q 393.98435704323566,662.1463921896793 396.02,662.24 Q 398.046080892608,662.2817829846583 399.26,662.28 Q 401.74676262203633,662.2817829846584 406.44,661.92 Q 411.1338577405857,661.55969874477 413.39,661.56 Q 422.77746610878654,661.55969874477 427.88,665.8 Q 432.9769059972106,670.044188563459 432.98,677.81 Q 432.9769059972106,684.9823062761507 428.1,689.13 Q 423.22876875871685,693.2862750348676 413.84,694.1 Q 420.069650209205,695.9038304044631 423.36,698.48 Q 426.65866889818693,701.0486806136681 428.46,705.38 Q 429.5921361227336,708.1792624825663 431.17,713.19 Q 434.33081394700133,723.2076407252441 438.35,723.21 Q 440.2428786610878,723.2076407252441 441.33,721.9 Q 442.45426164574616,720.5449550906555 442.68,717.97 L 444.17,717.97 Q 443.943560390516,723.7040736401674 441.37,726.73 Q 438.7987101813109,729.751529149233 434.11,729.75 Q 428.0577071129707,729.751529149233 424.85,725.19 Q 421.69433974895395,720.5900853556486 419.84,708.5 Q 418.5352211994421,699.9655542538355 416.05,697.57 Q 413.5708920502091,695.1817461645746 407.66,695.18 Q 407.4783062761506,695.1817461645746 406.12,695.27 Q 404.815620641562,695.3171369595537 403.69,695.32 L 403.69,714.54"/>
<path class="okbtjewpqjmctdhxzkvtgpovt" d="M 488.89,693.15 Q 489.2994767085076,693.1508842398885 490.07,693.2 Q 490.8790359832636,693.2411447698746 491.29,693.24 Q 500.49178242677823,693.2411447698746 504.91,689.5 Q 509.3373143654114,685.7043905160391 509.34,677.81 Q 509.3373143654114,670.4954912133892 505.82,667.2 Q 502.3421232914922,663.8613422594143 494.72,663.86 Q 493.40633082287303,663.8613422594143 491.92,664.0 Q 490.47286359832634,664.1321238493724 488.89,664.4 L 488.89,693.15 M 488.89,714.54 L 488.89,719.33 Q 488.89330432357036,724.6066789400279 490.07,725.87 Q 491.2852083682008,727.1339737796375 495.71,727.45 L 495.75,729.3 Q 490.9692965132496,728.9391843793585 488.44,728.8 Q 485.9147068340307,728.6684027894004 484.06,728.67 Q 482.3494158995815,728.6684027894004 479.87,728.8 Q 477.4302170153417,728.9391843793585 472.24,729.3 L 472.24,727.45 Q 476.5727419804742,727.2693645746165 477.84,725.87 Q 479.10003682008363,724.4261578800558 479.1,718.2 L 479.1,714.54 L 479.1,673.2 Q 479.10003682008363,667.1107213389122 477.93,665.62 Q 476.79839330543933,664.0869935843795 473.1,663.77 L 473.1,661.83 Q 479.19029735006967,662.1463921896793 481.22,662.24 Q 483.252021199442,662.2817829846583 484.47,662.28 Q 486.9527029288702,662.2817829846584 491.65,661.92 Q 496.3397980474197,661.55969874477 498.6,661.56 Q 507.98340641562055,661.55969874477 513.08,665.8 Q 518.1828463040445,670.044188563459 518.18,677.81 Q 518.1828463040445,684.9823062761507 513.31,689.13 Q 508.43470906555086,693.2862750348676 499.05,694.1 Q 505.275590516039,695.9038304044631 508.57,698.48 Q 511.86460920502094,701.0486806136681 513.67,705.38 Q 514.7980764295676,708.1792624825663 516.38,713.19 Q 519.5367542538354,723.2076407252441 523.55,723.21 Q 525.4488189679219,723.2076407252441 526.53,721.9 Q 527.6602019525801,720.5449550906555 527.89,717.97 L 529.38,717.97 Q 529.14950069735,723.7040736401674 526.58,726.73 Q 524.004650488145,729.751529149233 519.31,729.75 Q 513.2636474198046,729.751529149233 510.06,725.19 Q 506.90028005578796,720.5900853556486 505.05,708.5 Q 503.7411615062761,699.9655542538355 501.26,697.57 Q 498.77683235704313,695.1817461645746 492.86,695.18 Q 492.6842465829846,695.1817461645746 491.33,695.27 Q 490.02156094839603,695.3171369595537 488.89,695.32 L 488.89,714.54"/>
<path class="okbtjewpqjmctdhxzkvtgpovt" d="M 541.02,701.68 L 551.08,701.68 Q 556.453311018131,701.6805043235705 557.54,700.96 Q 558.6646940027892,700.1912055788006 558.66,697.71 Q 558.6646940027892,694.2340105997212 556.5,692.29 Q 554.3321885634587,690.3076775453278 550.54,690.31 Q 546.5246527196653,690.3076775453278 544.13,693.2 Q 541.7408446304044,696.0392211994422 541.02,701.68 M 540.75,703.8 Q 540.7028485355647,704.0724083682009 540.66,704.48 Q 540.3418064156206,707.4120479776849 540.34,708.81 Q 540.3418064156206,717.1150549511856 543.82,722.08 Q 547.2918672245466,726.9985829846584 553.02,727.0 Q 556.9497439330544,726.9985829846584 559.57,724.92 Q 562.2299849372384,722.8014683403069 563.36,718.78 L 564.94,719.15 Q 563.6290231520222,724.5615486750349 559.75,727.5 Q 555.8666175732217,730.4284831241283 550.04,730.43 Q 542.4629288702927,730.4284831241283 537.77,725.1 Q 533.0758337517434,719.7777405857742 533.08,711.11 Q 533.0758337517434,701.5902437935845 538.22,695.18 Q 543.4106644351464,688.7281182705719 550.72,688.73 Q 556.2727899581589,688.7281182705719 560.24,692.79 Q 564.2157165969315,696.8064357043237 564.22,701.95 Q 564.2157165969315,703.0344122733613 563.67,703.44 Q 563.1777205020919,703.8016267782427 560.88,703.8 L 540.75,703.8"/>
<path class="okbtjewpqjmctdhxzkvtgpovt" d="M 603.57,720.82 Q 601.2225338912133,725.5544145048815 597.3,727.99 Q 593.3698677824266,730.4284831241283 588.04,730.43 Q 580.191830404463,730.4284831241283 575.23,725.06 Q 570.3083023709901,719.642349790795 570.31,711.2 Q 570.3083023709901,701.7256345885635 576.18,695.23 Q 582.0421712691771,688.7281182705719 590.44,688.73 Q 595.6263810320779,688.7281182705719 599.01,691.12 Q 602.441051046025,693.4667960948397 602.44,696.94 Q 602.441051046025,698.5213857740587 601.63,699.38 Q 600.816361506276,700.1912055788006 599.33,700.19 Q 597.9731548117154,700.1912055788006 597.16,699.38 Q 596.3484652719665,698.5213857740587 596.35,697.12 Q 596.3484652719665,696.1746119944213 596.71,695.05 Q 597.0705495118548,693.8729684797769 597.07,693.74 Q 597.0705495118548,692.0677578800559 595.31,691.17 Q 593.5955191073917,690.2174170153418 590.53,690.22 Q 584.4792055788005,690.2174170153418 581.23,695.27 Q 577.9804474198047,700.3265963737797 577.98,709.62 Q 577.9804474198047,717.972529986053 581.41,722.62 Q 584.8402476987446,727.2693645746165 590.89,727.27 Q 594.6786454672244,727.2693645746165 597.48,725.46 Q 600.3199285913527,723.6138131101814 602.26,719.96 L 603.57,720.82"/>
<path class="okbtjewpqjmctdhxzkvtgpovt" d="M 620.58,719.42 L 620.58,721.81 Q 620.5834175732216,725.5995447698746 621.4,726.5 Q 622.2081071129705,727.4047553695956 625.28,727.63 L 625.28,729.3 Q 624.509750627615,729.2550962343097 623.16,729.21 Q 618.7330767085075,728.9391843793585 617.15,728.94 Q 615.1677857740583,728.9391843793585 610.38,729.21 Q 609.4813723849372,729.3002264993027 609.03,729.3 L 609.03,727.68 Q 612.1891882845187,727.3144948396096 612.96,726.41 Q 613.7236172942817,725.5092842398885 613.72,721.36 L 613.72,719.42 L 613.72,697.26 Q 613.7236172942817,693.6473171548118 612.87,692.79 Q 612.0537974895396,691.8872368200838 609.3,691.89 L 609.3,690.22 Q 612.4148396094838,689.9917656903766 615.21,689.63 Q 618.056122733612,689.2696814504882 620.58,688.73 L 620.58,719.42 M 616.79,670.63 Q 614.7616133891213,670.6308820083683 613.68,669.46 Q 612.640490934449,668.2389779637379 612.64,665.89 Q 612.640490934449,663.5454304044631 613.68,662.33 Q 614.7616133891211,661.1083960948397 616.79,661.11 Q 618.7782069735006,661.1083960948397 619.86,662.37 Q 620.9444596931658,663.5905606694562 620.94,665.89 Q 620.9444596931658,668.2389779637379 619.86,669.46 Q 618.8233372384937,670.6308820083683 616.79,670.63"/>
<path class="okbtjewpqjmctdhxzkvtgpovt" d="M 664.77,720.82 Q 662.4191732217571,725.5544145048815 658.49,727.99 Q 654.5665071129706,730.4284831241283 649.24,730.43 Q 641.3884697350068,730.4284831241283 636.42,725.06 Q 631.5049417015341,719.642349790795 631.5,711.2 Q 631.5049417015341,701.7256345885635 637.37,695.23 Q 643.2388105997211,688.7281182705719 651.63,688.73 Q 656.823020362622,688.7281182705719 660.21,691.12 Q 663.6376903765688,693.4667960948397 663.64,696.94 Q 663.6376903765688,698.5213857740587 662.83,699.38 Q 662.0130008368199,700.1912055788006 660.52,700.19 Q 659.1697941422592,700.1912055788006 658.36,699.38 Q 657.5451046025103,698.5213857740587 657.55,697.12 Q 657.5451046025103,696.1746119944213 657.91,695.05 Q 658.2671888423986,693.8729684797769 658.27,693.74 Q 658.2671888423988,692.0677578800559 656.51,691.17 Q 654.7921584379358,690.2174170153418 651.72,690.22 Q 645.6758449093443,690.2174170153418 642.43,695.27 Q 639.1770867503485,700.3265963737797 639.18,709.62 Q 639.1770867503485,717.972529986053 642.61,722.62 Q 646.0368870292884,727.2693645746165 652.08,727.27 Q 655.8752847977682,727.2693645746165 658.67,725.46 Q 661.5165679218967,723.6138131101814 663.46,719.96 L 664.77,720.82"/>
<path class="okbtjewpqjmctdhxzkvtgpovt" d="M 681.33,719.42 L 681.33,721.09 Q 681.3287542538353,725.4641539748955 682.19,726.41 Q 683.0437043235704,727.3144948396096 686.92,727.63 L 686.97,729.3 Q 686.3382136680611,729.2550962343097 685.21,729.21 Q 680.2907581589957,728.9391843793585 678.44,728.94 Q 676.0033829846582,728.9391843793585 669.96,729.26 Q 669.1887129707113,729.3002264993027 668.83,729.3 L 668.83,727.68 Q 672.7540039051603,727.3144948396096 673.61,726.41 Q 674.4689539748954,725.4641539748955 674.47,721.09 L 674.47,719.42 L 674.47,668.6 Q 674.4689539748952,664.8993383542539 673.57,664.04 Q 672.7088736401672,663.1392580195259 669.59,663.14 L 668.83,663.14 L 668.83,661.6 Q 672.167310460251,661.4243079497909 675.42,661.06 Q 678.7111988842398,660.6570934449094 681.87,660.07 Q 681.5995358437935,666.3435068340308 681.46,670.31 Q 681.3287542538353,674.2413032078105 681.33,676.09 L 681.33,719.42"/>
<path class="okbtjewpqjmctdhxzkvtgpovt" d="M 712.47,721.63 L 712.47,707.41 Q 705.6539670850766,708.1792624825663 702.31,710.98 Q 698.9746878661088,713.7754153417015 698.97,718.69 Q 698.9746878661085,721.9439933054393 700.55,723.88 Q 702.1789366806136,725.7800658298466 704.8,725.78 Q 706.556572384937,725.7800658298466 708.14,725.01 Q 709.760821199442,724.2005065550907 712.47,721.63 M 712.47,723.75 Q 708.361782984658,727.5401461645747 705.79,728.98 Q 703.2620630404463,730.4284831241283 700.92,730.43 Q 697.3048680613665,730.4284831241283 694.87,727.86 Q 692.4307994421199,725.2385026499303 692.43,721.36 Q 692.4307994421197,715.4452351464436 697.8,711.25 Q 703.2169327754532,707.0510058577406 712.47,705.92 L 712.47,699.2 Q 712.4686370990235,693.5119263598327 710.93,691.89 Q 709.3997790794976,690.2174170153418 705.34,690.22 Q 702.0886761506274,690.2174170153418 700.78,691.12 Q 699.516251046025,691.9774973500698 699.34,694.5 Q 699.1552089260808,697.2126080892609 698.39,698.12 Q 697.6207799163178,698.9726884239889 695.91,698.97 Q 694.5067916317989,698.9726884239889 693.6,698.16 Q 692.7015810320779,697.302868619247 692.7,695.95 Q 692.7015810320779,692.9252329149234 696.18,690.85 Q 699.6967721059971,688.7281182705719 705.07,688.73 Q 712.7845489539748,688.7281182705719 716.03,691.8 Q 719.3284373779636,694.8658343096236 719.33,702.31 L 719.33,723.12 Q 719.3284373779636,725.4190237099024 719.96,726.55 Q 720.5920847977684,727.6304066945607 721.9,727.63 Q 722.5326861924684,727.6304066945607 723.3,727.18 Q 724.1122454672243,726.7278013947002 725.51,725.51 L 726.5,726.73 Q 725.330762622036,728.4427514644352 723.39,729.44 Q 721.4946900976288,730.4284831241283 719.42,730.43 Q 716.665751743375,730.4284831241283 714.82,728.67 Q 712.9650700139468,726.8631921896792 712.47,723.75"/>
<path class="okbtjewpqjmctdhxzkvtgpovt" d="M 741.04,729.66 Q 737.7867157601115,729.3002264993027 734.81,729.12 Q 731.8746510460251,728.9391843793585 729.12,728.94 L 729.12,727.27 Q 732.5967352859134,727.0888435146444 733.72,725.69 Q 734.8532485355647,724.2907670850768 734.85,719.06 L 734.85,668.6 Q 734.8532485355647,664.944468619247 733.95,664.04 Q 733.0480379358437,663.1392580195259 729.89,663.14 L 729.12,663.14 L 729.12,661.6 Q 732.5967352859134,661.4243079497909 735.94,661.06 Q 739.2760145048812,660.6570934449094 742.44,660.07 Q 742.164351464435,666.3435068340308 742.03,670.31 Q 741.8935698744767,674.2413032078105 741.89,676.09 L 741.89,696.67 Q 744.2403436541142,692.7447118549512 747.31,690.76 Q 750.4231899581589,688.7281182705719 754.17,688.73 Q 761.4801048814502,688.7281182705719 766.9,694.87 Q 772.3113684797765,701.003550348675 772.31,709.62 Q 772.3113684797765,718.3787023709903 766.76,724.29 Q 761.2544535564853,730.1577015341702 753.18,730.16 Q 749.2949333333331,730.1577015341702 746.45,728.8 Q 743.6085199442118,727.4498856345887 741.53,724.61 L 741.04,729.66 M 741.89,705.83 L 741.89,715.72 Q 741.8935698744767,722.4404262203627 744.51,725.6 Q 747.1286806136679,728.7586633193864 752.68,728.76 Q 758.9979403068339,728.7586633193864 761.75,724.34 Q 764.5489629009762,719.9131313807532 764.55,709.62 Q 764.548962900976,699.5142516039052 761.93,694.87 Q 759.3589824267781,690.2174170153418 753.81,690.22 Q 748.5277188284517,690.2174170153418 745.19,694.46 Q 741.8935698744767,698.7019068340308 741.89,705.83"/>
<path class="okbtjewpqjmctdhxzkvtgpovt" d="M 789.96,719.42 L 789.96,721.09 Q 789.95730209205,725.4641539748955 790.81,726.41 Q 791.6722521617851,727.3144948396096 795.55,727.63 L 795.6,729.3 Q 794.9667615062758,729.2550962343097 793.84,729.21 Q 788.9193059972104,728.9391843793585 787.07,728.94 Q 784.6319308228728,728.9391843793585 778.58,729.26 Q 777.817260808926,729.3002264993027 777.46,729.3 L 777.46,727.68 Q 781.382551743375,727.3144948396096 782.24,726.41 Q 783.0975018131101,725.4641539748955 783.1,721.09 L 783.1,719.42 L 783.1,668.6 Q 783.0975018131101,664.8993383542539 782.19,664.04 Q 781.3374214783819,663.1392580195259 778.22,663.14 L 777.46,663.14 L 777.46,661.6 Q 780.7958582984656,661.4243079497909 784.05,661.06 Q 787.3397467224545,660.6570934449094 790.5,660.07 Q 790.2280836820082,666.3435068340308 790.09,670.31 Q 789.95730209205,674.2413032078105 789.96,676.09 L 789.96,719.42"/>
<path class="okbtjewpqjmctdhxzkvtgpovt" d="M 808.82,701.68 L 818.89,701.68 Q 824.2563034867501,701.6805043235705 825.34,700.96 Q 826.4676864714083,700.1912055788006 826.47,697.71 Q 826.4676864714083,694.2340105997212 824.3,692.29 Q 822.1351810320778,690.3076775453278 818.34,690.31 Q 814.3276451882844,690.3076775453278 811.94,693.2 Q 809.5438370990234,696.0392211994422 808.82,701.68 M 808.55,703.8 Q 808.5058410041838,704.0724083682009 808.46,704.48 Q 808.1447988842397,707.4120479776849 808.14,708.81 Q 808.1447988842397,717.1150549511856 811.62,722.08 Q 815.0948596931657,726.9985829846584 820.83,727.0 Q 824.7527364016735,726.9985829846584 827.37,724.92 Q 830.0329774058575,722.8014683403069 831.16,718.78 L 832.74,719.15 Q 831.4320156206413,724.5615486750349 827.55,727.5 Q 823.6696100418408,730.4284831241283 817.85,730.43 Q 810.265921338912,730.4284831241283 805.57,725.1 Q 800.8788262203625,719.7777405857742 800.88,711.11 Q 800.8788262203625,701.5902437935845 806.02,695.18 Q 811.2136569037655,688.7281182705719 818.52,688.73 Q 824.075782426778,688.7281182705719 828.05,692.79 Q 832.0187090655506,696.8064357043237 832.02,701.95 Q 832.0187090655506,703.0344122733613 831.48,703.44 Q 830.980712970711,703.8016267782427 828.68,703.8 L 808.55,703.8"/>
</g>

                </svg>
                